<svg width="186" height="187" viewBox="0 0 186 187" fill="none" xmlns="http://www.w3.org/2000/svg">
<path d="M46.0774 168.352V165.823C47.3174 165.374 50.1018 163.97 51.3192 161.947C52.841 159.42 53.3483 156.639 53.6019 155.207C53.8556 153.774 54.1938 149.056 54.1938 147.961V49.2936C54.1938 46.9344 53.7203 40.9688 53.5174 39.6882C53.3145 38.4074 52.7565 35.9976 52.4183 35.0539C51.9654 33.79 51.0656 32.2734 50.1356 31.2622C49.2056 30.2512 47.261 29.4929 46.2465 29.4929V26.4595H79.0501V29.1558C78.261 29.2119 76.1756 29.8973 74.1465 32.1891C71.6101 35.0539 70.9338 43.0585 70.9338 49.8835V135.49C70.9338 141.894 70.883 156.235 72.7092 160.01C73.4837 161.611 74.8228 164.864 79.2192 165.065V168.352H46.0774Z" fill="white"/>
<path d="M78.5426 36.4861C77.8662 37.9467 75.9216 42.6033 73.5544 49.5463C70.5953 58.225 70.1726 61.511 68.9044 66.3981C67.6362 71.2851 66.2835 79.6267 65.6916 85.3563C65.0998 91.0859 64.5926 95.8044 64.3389 102.629C64.0853 109.455 64.0853 112.656 64.3389 119.312C64.5926 125.97 65.8607 134.48 66.7907 139.282C67.7207 144.085 69.6653 151.331 71.6098 156.134C73.5544 160.937 77.1053 165.992 77.8662 166.919C78.6271 167.846 80.2335 170.037 82.6007 171.637C84.968 173.239 86.6589 174.249 90.1253 174.502C93.5917 174.755 95.4516 174.249 97.2271 173.407C99.0026 172.564 101.37 170.964 103.314 168.941C105.259 166.919 107.626 164.644 111.177 157.566C114.728 150.488 115.743 147.118 116.926 143.663C118.11 140.209 119.885 134.563 120.562 131.951C121.238 129.339 123.183 122.683 123.774 120.155C124.366 117.628 126.057 110.634 126.903 106.926C127.748 103.219 129.608 95.6358 130.115 93.0238C130.623 90.4118 132.06 84.598 132.905 81.0591C133.751 77.5203 135.695 69.8526 136.287 67.5777L136.323 67.4397C136.932 65.0971 138.26 59.9923 139.669 55.6972C141.106 51.3157 141.867 48.788 143.643 43.9009C145.418 39.0139 147.447 34.7167 148.969 31.7677C150.491 28.8186 152.858 24.7742 155.648 21.488C158.438 18.202 161.313 16.0955 163.764 14.7474C166.216 13.3992 169.514 12.9779 172.388 13.2307C175.263 13.4835 178.053 14.4104 178.729 14.7474C179.405 15.0843 179.49 14.7473 179.405 14.5787C179.321 14.4103 178.56 14.0733 178.391 13.9889C178.222 13.9047 175.516 12.8936 174.164 12.6408C172.811 12.3881 169.767 12.051 167.569 12.4723C165.371 12.8936 163.342 13.7361 161.059 15.1685C158.776 16.601 155.733 19.4657 153.027 23.1731C150.322 26.8805 148.124 31.0092 147.194 33.0314C146.264 35.0536 144.488 38.9295 143.389 41.7944C142.29 44.6591 141.022 47.8609 140.007 50.9785C138.993 54.0961 136.964 60.4997 136.118 63.7859C135.273 67.072 133.92 71.7062 133.074 75.2451C132.229 78.784 130.115 87.0414 129.016 91.4228C127.917 95.8043 126.226 102.882 125.381 106.589C124.535 110.297 123.183 115.69 122.675 117.627C122.168 119.565 120.562 125.885 119.801 128.497C119.04 131.109 117.095 137.934 116.081 140.798C115.066 143.663 113.798 147.708 112.107 151.668C110.416 155.628 109.317 158.156 107.457 161.357L107.337 161.563C105.513 164.708 103.551 168.086 98.918 171.384C94.1835 174.755 88.688 173.491 86.4053 171.637C84.1226 169.784 80.8253 166.835 78.1198 160.852C75.4144 154.869 73.7235 150.488 72.5398 145.264C71.3562 140.04 70.8489 136.839 70.5953 134.985C70.3417 133.131 69.5807 127.907 69.4117 125.042C69.2426 122.177 68.9044 114.763 68.9889 111.814C69.0735 108.865 69.0735 102.714 69.158 101.028C69.2426 99.3431 69.7498 91.3386 70.1726 88.0524C70.5953 84.7663 71.6944 76.7617 72.2862 74.1497C72.878 71.5377 73.6389 67.2405 74.8226 62.3534C76.0062 57.4665 77.4435 52.2424 78.8807 47.8609C80.2008 43.8367 80.9503 41.3052 82.5049 37.3286C82.6119 37.055 82.7226 36.7744 82.8377 36.4861C82.8711 36.4025 82.9048 36.3182 82.9389 36.2333C85.0003 31.878 85.6946 30.6483 86.4335 29.3395L86.4898 29.2398C87.2507 27.8917 89.2798 24.6897 90.548 23.0889C91.8162 21.4879 94.1835 18.7916 95.7898 17.6963L95.8287 17.6698C97.4316 16.5766 99.6209 15.0836 102.892 15C106.189 14.9158 108.303 16.2639 109.317 18.5389C110.332 20.8138 110.501 25.2795 108.641 28.7342C106.781 32.1888 102.638 35.0536 100.186 35.8119C97.7344 36.5702 94.5217 37.4129 89.3644 37.1601C85.2386 36.9578 83.2942 36.6265 82.8377 36.4861C82.7226 36.7744 82.6119 37.055 82.5049 37.3286C85.0299 37.7499 90.3789 38.4239 94.268 38.0027C98.1571 37.5814 101.454 36.6545 104.244 34.8851C107.034 33.1157 108.894 30.6722 109.824 28.7342C110.754 26.7963 111.769 22.4148 110.585 19.3815C109.402 16.3481 107.457 15 106.104 14.4102C104.752 13.8204 102.215 13.399 99.848 13.7361C97.4807 14.0732 94.9444 15.1685 92.6617 16.6852C90.3789 18.2018 88.0116 20.6453 86.3207 22.7518C84.6298 24.8583 82.8377 27.9759 82.0935 29.2398C81.5588 30.1478 79.8752 33.6607 78.8599 35.8119C78.7446 36.0562 78.6379 36.2828 78.5426 36.4861Z" fill="#D8B024"/>
<path d="M6.93266 66.7335C7.04539 67.0424 7.40612 67.5928 7.94721 67.3233C8.4883 67.0537 8.56721 66.7054 8.53903 66.5649C8.39812 66.3402 8.09939 65.7223 8.03176 65.0483C7.94721 64.2057 7.94721 62.0992 7.94721 61.9307C7.94721 61.7622 8.03175 59.5714 8.28539 57.8863C8.53903 56.2011 9.29994 53.7576 9.80721 52.6622L9.83345 52.6055C10.3625 51.4629 11.7716 48.4197 12.9354 46.6799C14.119 44.9104 15.979 42.4669 18.3463 40.3605C20.7136 38.2539 22.489 37.1586 24.6872 35.979C26.8854 34.7994 30.2672 33.367 32.0427 32.8614C33.8181 32.3558 36.3545 31.5975 42.019 31.0077C47.6836 30.4179 53.6024 31.1529 54.0245 31.1762C54.3224 31.1927 60.9572 32.0637 61.7181 32.1872C62.9299 32.3838 65.5734 32.8277 66.4527 33.0299C67.8899 33.3605 73.6052 34.8683 78.5427 36.486C78.638 36.2827 78.7447 36.056 78.86 35.8118C77.9091 35.4747 75.7527 34.8007 74.9072 34.5478C74.0617 34.2951 70.9336 33.3683 69.5808 33.0299C68.2281 32.6916 63.3245 31.4304 59.2663 30.7562C55.2081 30.0821 48.6981 29.5767 46.2463 29.5767C43.7945 29.5767 40.159 29.9136 37.7918 30.2507C35.4245 30.5877 32.4654 31.2618 29.6754 32.2729C26.8854 33.284 23.5881 35.0534 21.4745 36.4015C19.3608 37.7498 16.4018 40.5303 15.049 42.0469C13.6963 43.5636 10.8218 48.1136 10.2299 49.3774C9.63812 50.6413 8.20085 54.2645 7.86266 55.3599C7.52448 56.4552 7.10176 58.3931 6.84812 59.8256C6.64521 60.9715 6.59448 63.0555 6.59448 63.9542C6.59448 64.4935 6.73107 66.181 6.93266 66.7335Z" fill="#D8B024"/>
</svg>
