<?xml version="1.0" standalone="no"?>
<!DOCTYPE svg PUBLIC "-//W3C//DTD SVG 20010904//EN"
 "http://www.w3.org/TR/2001/REC-SVG-20010904/DTD/svg10.dtd">
<svg version="1.0" xmlns="http://www.w3.org/2000/svg"
 width="300.000000pt" height="600.000000pt" viewBox="0 0 300.000000 600.000000"
 preserveAspectRatio="xMidYMid meet">
<metadata>
Created by potrace 1.10, written by Peter Selinger 2001-2011
</metadata>
<g transform="translate(0.000000,600.000000) scale(0.100000,-0.100000)"
fill="#FFFDCC" stroke="none">
<path d="M1343 5901 c-58 -10 -73 -26 -73 -75 0 -23 -5 -47 -11 -53 -7 -7 -8
-39 -4 -94 8 -104 7 -337 -5 -764 -11 -413 -9 -404 -129 -529 -47 -50 -101
-109 -118 -131 -43 -55 -99 -160 -124 -231 -52 -149 -50 -77 -55 -1844 l-5
-1645 28 -75 c27 -72 30 -75 75 -92 85 -31 243 -40 663 -36 610 6 601 1 616
363 4 105 8 850 8 1657 1 1604 3 1534 -58 1694 -42 110 -118 220 -222 325
-132 134 -131 131 -150 782 -10 335 -10 440 -1 449 15 15 16 154 2 163 -5 3
-10 25 -10 49 0 54 -16 75 -65 86 -45 11 -298 11 -362 1z m239 -30 c65 -5 123
-13 131 -19 7 -6 14 -24 15 -41 1 -17 7 -43 13 -58 12 -32 10 -129 -4 -160
-15 -34 9 -734 25 -745 10 -6 9 -8 -2 -8 -13 0 -15 -15 -8 -107 9 -137 24
-217 50 -268 12 -22 62 -83 113 -135 132 -137 205 -269 239 -432 11 -55 16
-133 16 -272 0 -228 8 -215 -120 -195 -46 7 -289 13 -628 16 l-554 5 4 216 c4
201 7 224 32 307 45 148 99 235 234 374 76 78 139 170 148 216 3 17 6 81 7
141 l2 109 35 17 c21 10 58 17 95 17 42 0 54 -3 40 -9 -13 -6 12 -9 73 -9 l92
-1 0 -60 0 -60 -97 -1 -98 -1 65 -10 c123 -17 157 5 147 94 -4 34 -2 48 6 49
7 1 1 5 -13 9 -14 4 -102 7 -197 6 -171 -3 -171 -3 -162 18 9 23 30 648 22
688 -5 24 -3 25 64 31 37 4 87 7 109 7 30 0 44 5 48 16 6 15 -5 16 -114 12
l-120 -5 0 52 c0 29 3 67 6 84 l7 31 101 0 c55 0 107 4 115 9 28 18 -12 24
-115 17 -58 -4 -104 -3 -104 1 0 19 26 44 55 52 37 12 79 12 227 2z m254
-2461 c170 -6 318 -12 330 -15 17 -4 20 -10 16 -35 l-4 -31 -62 8 c-33 4 -334
8 -667 7 l-605 0 -1 32 -1 33 77 4 c181 8 631 6 917 -3z m234 -89 l105 -6 0
-67 c0 -48 -3 -68 -12 -68 -16 0 -18 -107 -2 -112 7 -2 10 -180 10 -567 0
-493 -2 -566 -16 -587 -20 -31 -25 -30 -25 2 0 14 4 23 9 20 12 -8 22 20 14
39 -4 13 -8 12 -20 -6 -19 -25 -20 -66 -4 -82 10 -9 17 -7 31 11 18 22 18 22
17 -32 -1 -52 -3 -55 -30 -60 -16 -3 -210 -6 -431 -6 -362 0 -584 7 -808 26
l-77 6 10 25 c5 14 7 33 4 43 -7 21 27 34 45 16 8 -8 10 0 8 34 -3 41 -5 45
-28 42 l-25 -3 0 545 c0 387 3 542 11 535 11 -9 34 8 34 26 0 5 -4 4 -9 -4
-14 -22 -31 -3 -31 34 0 37 17 55 32 34 8 -12 9 -11 5 1 -2 8 -13 15 -23 14
-17 0 -19 8 -19 73 l0 72 100 4 c186 6 1019 5 1125 -2z m-820 -1532 c133 -7
386 -10 585 -7 l350 5 0 -33 c0 -32 -2 -34 -45 -41 -83 -13 -1005 -9 -1140 5
-172 18 -167 16 -166 59 l1 36 90 -7 c50 -3 196 -11 325 -17z m-265 -105 c78
-9 622 -21 795 -18 85 2 202 8 259 14 74 7 108 7 117 -1 11 -9 13 -103 12
-472 -2 -748 -5 -769 -105 -807 -94 -35 -216 -42 -620 -37 -369 5 -440 11
-517 42 -10 5 -29 32 -42 62 l-24 54 0 583 c0 320 3 586 7 589 4 4 20 5 37 2
17 -3 54 -8 81 -11z"/>
<path d="M1414 3298 c-5 -8 -2 -9 9 -5 22 8 22 -11 1 -41 -14 -21 -14 -22 8
-22 14 0 19 3 11 8 -8 5 -9 13 -3 22 14 23 12 50 -4 50 -8 0 -18 -5 -22 -12z"/>
<path d="M1472 3298 c-17 -17 -15 -43 3 -58 12 -10 19 -10 27 -2 8 8 15 9 25
1 21 -18 43 -2 43 31 0 34 -22 49 -44 31 -10 -8 -16 -9 -21 -1 -8 13 -18 13
-33 -2z m33 -28 c0 -27 -22 -39 -31 -16 -8 22 3 49 19 43 6 -2 12 -14 12 -27z
m55 0 c0 -25 -18 -36 -26 -16 -8 21 3 49 16 41 5 -3 10 -15 10 -25z"/>
<path d="M1594 3270 c1 -16 -3 -32 -8 -34 -6 -2 -2 -5 9 -5 18 -1 20 4 17 34
-5 43 -21 47 -18 5z"/>
<path d="M903 3125 c0 -33 2 -48 4 -32 3 18 10 27 23 27 13 0 20 -9 23 -27 2
-16 4 -1 4 32 0 33 -2 48 -4 33 -3 -19 -10 -28 -23 -28 -13 0 -20 9 -23 28 -2
15 -4 0 -4 -33z"/>
<path d="M1015 3168 c-26 -73 -33 -98 -25 -98 6 0 10 7 10 15 0 9 9 15 25 15
16 0 25 -6 25 -15 0 -8 5 -15 11 -15 6 0 9 6 6 14 -3 8 -11 32 -18 55 -12 41
-26 52 -34 29z"/>
<path d="M1083 3173 c13 -3 17 -15 17 -54 0 -27 5 -49 10 -49 6 0 10 22 10 49
0 39 4 51 18 54 9 3 -3 5 -28 5 -25 0 -37 -2 -27 -5z"/>
<path d="M1160 3125 l0 -55 48 2 c43 1 44 2 10 5 -29 3 -38 9 -38 23 0 13 9
20 28 23 l27 4 -27 2 c-21 1 -28 6 -28 20 0 15 8 21 38 24 34 3 33 4 -10 5
l-48 2 0 -55z"/>
<path d="M1280 3134 c-21 -48 -27 -82 -9 -51 5 9 17 17 24 17 8 0 15 5 15 10
0 6 -4 10 -10 10 -13 0 -13 27 -1 34 5 4 16 -13 23 -36 8 -23 20 -44 26 -46 8
-2 5 14 -8 47 -11 29 -20 54 -20 56 0 3 -5 5 -10 5 -6 0 -20 -21 -30 -46z"/>
<path d="M1360 3136 c0 -49 17 -69 52 -64 21 3 23 9 24 58 1 30 0 42 -2 25 -9
-63 -14 -75 -34 -75 -17 0 -20 7 -20 50 0 28 -4 50 -10 50 -5 0 -10 -20 -10
-44z"/>
<path d="M1470 3124 l0 -55 42 3 c36 3 44 7 52 30 7 18 6 35 -2 53 -10 21 -18
25 -52 25 l-40 0 0 -56z m78 7 c4 -37 -9 -51 -45 -51 -21 0 -23 5 -23 46 0 45
0 45 33 42 28 -3 32 -7 35 -37z"/>
<path d="M1580 3125 l0 -55 53 2 c50 1 50 2 10 5 -34 3 -43 8 -43 23 0 14 9
20 33 23 l32 4 -32 1 c-25 2 -33 7 -33 21 0 15 8 21 38 24 34 3 33 4 -10 5
l-48 2 0 -55z"/>
<path d="M1690 3125 c0 -30 5 -55 10 -55 6 0 10 11 10 24 0 20 6 25 33 29 l32
4 -32 1 c-25 2 -33 7 -33 21 0 15 8 21 38 24 34 3 33 4 -10 5 l-48 2 0 -55z"/>
<path d="M1790 3125 c0 -30 5 -55 10 -55 6 0 10 11 10 25 0 20 5 25 25 25 20
0 25 -5 25 -25 0 -28 27 -35 36 -10 4 8 17 15 30 15 15 0 24 -6 24 -15 0 -8 5
-15 10 -15 13 0 13 3 -6 61 -9 27 -21 48 -27 46 -6 -2 -19 -25 -28 -53 -11
-31 -18 -41 -18 -26 -1 12 -6 22 -12 22 -8 0 -8 4 0 14 21 25 2 46 -40 46
l-39 0 0 -55z m65 25 c0 -8 -10 -16 -22 -18 -18 -3 -23 2 -23 18 0 16 5 21 23
18 12 -2 22 -10 22 -18z"/>
<path d="M1982 3123 l1 -58 6 45 6 45 19 -43 c16 -36 36 -56 36 -36 0 12 -55
104 -62 104 -5 0 -7 -26 -6 -57z"/>
<path d="M2070 3154 c-15 -39 0 -79 30 -79 13 0 24 6 26 13 1 7 0 8 -3 2 -2
-5 -13 -10 -24 -10 -15 0 -19 7 -19 39 0 45 13 59 37 39 14 -11 16 -11 11 2
-2 8 -14 16 -26 18 -16 3 -25 -4 -32 -24z"/>
<path d="M1567 3036 c-11 -8 -17 -27 -17 -49 0 -27 -5 -37 -20 -42 -21 -7 -29
-55 -10 -55 6 0 10 9 10 19 0 16 6 19 33 16 67 -8 91 -20 81 -37 -4 -7 -2 -8
4 -4 8 5 12 -3 12 -23 0 -21 -5 -31 -15 -31 -8 0 -15 5 -15 11 0 5 5 7 12 3 7
-4 8 -3 4 5 -4 6 -12 8 -19 4 -15 -9 -108 -10 -113 -1 -3 4 -10 5 -17 3 -7 -2
-36 -6 -64 -9 l-53 -5 0 33 c0 37 12 45 63 47 l32 1 -35 10 c-25 7 -35 7 -38
-2 -3 -7 -11 -6 -28 5 -24 15 -74 12 -74 -6 0 -5 -7 -6 -15 -3 -17 7 -19 -4
-6 -25 10 -15 31 -7 31 13 0 8 9 16 20 19 18 5 20 0 20 -38 l0 -43 -45 -7
c-25 -3 -43 -10 -40 -15 3 -5 13 -6 22 -3 12 5 14 3 8 -8 -7 -11 -6 -12 6 -3
8 6 22 14 32 17 16 6 17 -8 15 -223 -2 -126 1 -219 5 -207 4 11 7 30 6 42 -1
11 0 70 2 130 2 103 3 106 9 45 4 -36 7 -50 8 -32 1 19 6 31 12 27 6 -4 10 5
10 19 0 30 8 33 25 10 6 -9 28 -17 48 -18 45 -3 50 -7 38 -37 -7 -17 -10 -19
-10 -6 -2 39 -71 7 -71 -32 0 -13 10 -21 31 -25 43 -8 51 -8 44 4 -3 5 1 20
10 33 8 13 12 27 8 30 -3 4 -1 7 5 7 7 0 12 16 12 40 0 35 3 39 22 37 14 -1
23 4 26 16 2 10 -3 17 -12 17 -9 0 -16 4 -16 8 0 4 -13 13 -30 19 -23 9 -32 8
-41 -3 -9 -11 -8 -18 5 -32 9 -10 15 -21 14 -23 -2 -2 2 1 7 6 14 16 45 26 45
16 0 -5 -10 -11 -21 -14 -16 -4 -20 -11 -16 -26 3 -14 1 -18 -9 -14 -8 3 -21
0 -28 -6 -10 -9 -16 -9 -21 -1 -4 6 0 17 10 23 14 11 14 15 -10 35 -27 24 -45
28 -45 11 0 -5 4 -8 9 -5 5 3 15 -1 22 -10 10 -13 10 -17 0 -24 -8 -4 -10 -13
-7 -19 4 -6 2 -11 -3 -11 -6 0 -11 6 -11 14 0 8 -6 16 -12 19 -7 2 -5 3 5 2 9
-2 17 1 17 6 0 5 -6 9 -14 9 -8 0 -16 8 -19 18 -3 14 -6 13 -15 -8 -9 -21 -11
-14 -13 50 l-3 75 -5 -70 c-3 -38 -8 -61 -11 -50 -3 11 -4 45 -2 75 l4 55 121
-3 c67 -2 133 -9 147 -15 25 -12 25 -15 30 -157 l5 -145 5 143 c3 79 3 168 2
197 -4 49 -7 56 -38 74 -31 18 -34 25 -34 65 0 51 -7 60 -33 42z m-72 -464 c7
-19 -3 -32 -24 -32 -25 0 -32 10 -21 30 11 20 37 22 45 2z"/>
<path d="M1731 2963 c-5 -10 -12 -116 -16 -235 l-8 -218 -48 0 c-56 0 -59 8
-32 65 16 34 16 37 -4 76 -19 37 -21 38 -27 17 -3 -15 0 -27 9 -34 9 -6 13
-19 10 -28 -17 -52 -17 -52 -26 -27 -5 13 -7 32 -4 42 4 11 2 19 -4 19 -21 0
-21 -21 -2 -66 12 -26 21 -53 21 -60 0 -8 10 -14 24 -14 29 0 48 -21 36 -39
-4 -8 -6 -20 -3 -28 3 -7 2 -21 -1 -30 -6 -15 -11 -13 -32 15 -14 18 -31 32
-38 32 -7 0 -12 10 -12 21 1 12 -5 24 -11 26 -7 3 -13 -2 -13 -11 0 -9 6 -16
13 -16 8 0 7 -4 -3 -10 -10 -6 -11 -10 -2 -10 6 0 12 -7 12 -15 0 -8 4 -14 8
-13 10 4 82 -44 82 -54 0 -5 5 -8 10 -8 6 0 9 3 9 8 -3 20 2 32 16 32 21 0 19
-18 -2 -23 -14 -4 -12 -5 5 -6 14 -1 22 5 23 17 1 19 -2 92 -4 107 -1 5 16 13
38 16 l40 6 -38 2 -38 1 6 53 c9 73 11 77 42 78 l28 1 -25 7 c-14 4 -26 4 -28
-1 -2 -4 -7 -8 -11 -8 -4 0 -6 44 -4 98 3 70 8 101 20 112 14 14 15 9 8 -42
-7 -65 0 -98 21 -98 16 0 19 17 4 22 -5 2 -11 38 -13 81 -3 64 0 82 15 99 19
22 24 39 11 37 -20 -3 -26 2 -13 11 12 8 9 10 -12 10 -16 0 -31 -7 -37 -17z
m42 -16 c4 3 7 1 7 -6 0 -8 -7 -10 -20 -6 -15 5 -18 3 -14 -9 3 -9 1 -16 -5
-16 -13 0 -13 6 -4 39 5 21 7 22 18 8 7 -9 15 -14 18 -10z m-63 -507 c0 -23
-4 -30 -20 -30 -16 0 -20 7 -20 30 0 23 4 30 20 30 16 0 20 -7 20 -30z"/>
<path d="M1230 2955 c-8 -9 -16 -12 -19 -6 -4 6 -19 4 -39 -4 l-32 -14 2 -113
2 -113 3 108 c4 104 5 108 29 119 20 9 27 9 33 0 5 -9 12 -7 25 7 14 16 23 18
37 10 13 -7 19 -6 19 1 0 6 5 8 12 4 7 -4 8 -3 4 4 -10 17 -61 15 -76 -3z"/>
<path d="M1463 2943 c10 -3 17 -14 17 -28 0 -13 5 -27 12 -31 8 -5 9 -2 5 10
-4 10 -7 26 -7 37 0 13 -7 19 -22 18 -17 -1 -19 -2 -5 -6z"/>
<path d="M1243 2922 c-9 -6 -13 -48 -14 -145 0 -76 -4 -135 -9 -132 -21 13
-19 -62 2 -76 5 -3 8 -31 6 -61 l-3 -56 -38 15 c-27 11 -36 20 -33 32 3 9 1
59 -3 111 l-8 95 -2 -108 -1 -107 -25 6 c-26 7 -29 1 -15 -31 7 -17 9 -17 9
-2 1 24 31 22 31 -3 0 -25 17 -26 23 -2 3 13 7 10 17 -13 10 -23 14 -26 17
-12 6 23 23 22 23 -3 0 -11 5 -20 10 -20 6 0 10 5 10 10 0 19 18 10 25 -12 6
-20 8 -20 12 -5 2 9 8 17 13 17 5 0 14 -8 19 -17 6 -10 11 -12 11 -5 0 6 1 15
3 19 1 3 -16 11 -38 17 l-40 12 -3 112 c-2 93 0 112 12 112 8 0 18 5 22 11 4
8 0 9 -15 4 -20 -6 -21 -3 -21 58 0 43 4 67 13 70 10 4 10 6 0 6 -17 1 -17 83
-1 99 14 14 9 16 -9 4z"/>
<path d="M1813 2894 c3 -4 0 -16 -8 -26 -7 -11 -11 -27 -8 -36 4 -8 2 -13 -3
-9 -5 3 -10 -8 -9 -26 0 -24 5 -32 20 -35 18 -2 19 -2 2 8 -14 9 -15 15 -5 33
13 24 14 28 24 70 4 19 2 27 -7 27 -7 0 -9 -3 -6 -6z"/>
<path d="M1433 2812 c-12 -8 -11 -68 2 -80 5 -4 5 -1 1 6 -7 11 5 17 28 13 5
-1 6 5 2 14 -3 9 -6 25 -6 36 0 20 -8 23 -27 11z"/>
<path d="M1280 2732 c0 -4 5 -13 10 -20 7 -9 7 -9 -2 -2 -7 6 -16 10 -20 10
-4 0 -8 -4 -8 -10 0 -5 5 -9 12 -7 6 1 17 -16 24 -38 7 -22 13 -35 13 -30 1 6
6 3 11 -5 15 -23 12 5 -4 36 -8 15 -12 32 -9 38 4 5 10 1 14 -10 6 -14 8 -15
8 -3 1 9 -7 23 -17 32 -20 18 -32 22 -32 9z"/>
<path d="M1744 2699 c-8 -13 13 -29 38 -29 24 0 30 15 13 30 -12 10 -15 9 -15
-4 0 -10 -5 -14 -10 -11 -6 4 -8 11 -5 16 4 5 2 9 -4 9 -5 0 -13 -5 -17 -11z"/>
<path d="M1525 2560 c-9 -14 4 -32 17 -24 7 4 8 2 4 -5 -4 -6 -12 -9 -17 -6
-5 4 -9 2 -9 -4 0 -5 -3 -18 -7 -28 -5 -13 1 -10 22 9 15 15 32 25 39 21 6 -3
0 6 -13 20 -28 31 -28 31 -36 17z"/>
<path d="M1377 2543 c-4 -3 -7 -56 -7 -117 0 -118 -9 -155 -29 -118 -9 18 -17
20 -44 15 -33 -6 -50 -21 -41 -35 3 -4 0 -8 -5 -8 -6 0 -11 -8 -11 -19 0 -10
-7 -24 -15 -31 -35 -29 -8 -56 59 -58 44 -2 76 12 76 32 0 12 30 32 34 24 18
-35 26 -64 31 -113 3 -33 11 -78 17 -100 6 -22 11 -56 11 -75 -1 -28 0 -30 4
-7 2 15 8 27 12 27 5 0 4 20 -2 45 -6 25 -14 45 -19 45 -4 0 -8 5 -8 11 0 5 5
7 10 4 6 -3 10 1 10 10 0 9 9 30 20 45 18 26 23 27 50 17 25 -9 33 -9 46 5 15
15 14 18 -4 36 -14 14 -17 22 -9 26 7 3 0 3 -14 0 -39 -8 -43 9 -7 31 28 16
31 16 25 2 -4 -10 -2 -17 3 -17 6 0 10 7 10 15 0 18 16 20 26 4 3 -6 0 -15 -7
-20 -10 -6 -7 -9 12 -9 41 0 49 -17 50 -114 1 -50 3 -83 6 -73 5 20 19 22 26
5 3 -7 6 9 6 36 1 33 -5 56 -16 68 -16 18 -16 19 3 13 19 -7 19 -6 0 9 -11 9
-17 19 -13 22 12 12 36 -17 36 -44 0 -15 4 -40 10 -57 9 -26 10 -23 8 30 -2
55 0 60 23 67 21 6 19 7 -7 3 l-32 -4 20 20 c11 11 19 23 16 25 -7 7 -37 -7
-37 -17 0 -14 -30 -11 -36 4 -2 7 1 28 9 46 12 28 15 30 27 17 10 -14 10 -16
-6 -16 -15 0 -16 -2 -5 -9 11 -7 10 -10 -5 -13 -13 -2 -15 -6 -7 -11 6 -4 18
0 26 8 9 8 22 15 29 15 7 0 20 4 28 10 12 7 12 12 -4 29 -11 12 -25 21 -33 21
-20 0 -15 28 6 35 35 11 39 65 5 65 -15 0 -16 -30 -1 -41 5 -3 2 -9 -7 -12 -9
-4 -16 -2 -16 2 0 5 -12 8 -27 6 -34 -4 -75 4 -68 14 2 4 -2 8 -10 8 -8 0 -11
-5 -8 -11 14 -22 10 -46 -9 -46 -10 0 -18 5 -18 10 0 6 3 10 8 10 4 0 7 13 7
29 0 24 -2 27 -17 17 -11 -6 -13 -13 -7 -17 8 -5 8 -9 0 -13 -6 -4 -9 -12 -5
-17 3 -5 2 -9 -3 -8 -23 4 -25 -3 -6 -16 12 -8 29 -12 37 -9 9 3 24 0 34 -7
15 -13 16 -12 3 4 -9 11 -10 17 -2 17 6 0 11 7 11 16 0 8 5 12 10 9 6 -3 10
-19 10 -35 0 -15 6 -31 13 -33 10 -4 10 -6 0 -6 -8 -1 -13 -15 -13 -37 0 -23
-4 -33 -11 -28 -6 3 -8 15 -5 27 4 15 2 17 -7 8 -8 -8 -18 -4 -39 16 -15 15
-28 21 -28 15 0 -7 -11 -12 -24 -12 -14 0 -28 -4 -31 -10 -4 -6 1 -7 11 -3 12
4 15 3 10 -5 -11 -18 -36 -15 -36 4 0 10 -6 14 -15 11 -8 -4 -17 -2 -20 3 -4
6 -1 10 4 10 6 0 11 4 11 10 0 5 -6 7 -14 4 -7 -3 -16 2 -19 10 -5 11 0 16 13
16 11 0 20 5 20 11 0 5 4 8 10 4 5 -3 7 -13 4 -23 -5 -14 -4 -14 4 -2 9 12 14
12 31 -4 12 -11 21 -14 21 -9 0 6 -7 16 -15 23 -9 8 -12 17 -7 24 5 6 12 24
16 39 4 15 11 25 16 22 6 -3 10 -1 10 5 0 12 -36 5 -57 -12 -7 -6 -13 -4 -16
4 -2 7 -3 4 -1 -7 2 -11 -2 -27 -7 -35 -9 -12 -10 -12 -5 3 5 15 2 17 -14 12
-12 -4 -20 -2 -20 5 0 6 -5 8 -10 5 -8 -5 -7 -11 1 -21 8 -10 9 -17 0 -28 -14
-17 -61 -9 -61 11 0 11 7 13 27 8 27 -6 27 -6 8 14 -14 16 -20 18 -27 9 -13
-22 -9 -2 7 28 10 20 15 23 15 12 0 -10 5 -18 11 -18 7 0 5 10 -5 25 -9 14
-12 25 -7 25 5 0 11 10 13 23 2 12 10 22 18 22 11 0 15 -12 16 -40 2 -74 3
-80 15 -68 7 7 8 19 4 30 -16 39 -14 62 6 60 10 -1 19 -7 19 -15 0 -7 5 -10
10 -7 6 3 10 -3 10 -14 0 -25 13 -27 30 -6 10 12 10 15 -4 15 -9 0 -16 7 -16
15 0 8 -7 15 -15 15 -8 0 -15 7 -15 15 0 8 -10 19 -22 25 -21 10 -21 10 -5 -3
21 -17 22 -27 2 -27 -8 0 -15 5 -15 11 0 6 -9 9 -20 6 -19 -5 -28 7 -12 16 9
5 -13 -1 -33 -9 -8 -3 -15 -1 -15 5 0 6 7 11 15 11 8 0 15 7 15 15 0 15 -21
21 -33 8z m330 -234 c-1 -21 -6 -23 -26 -10 -18 12 -7 42 13 35 8 -3 14 -14
13 -25z m-381 -43 c-9 -14 -20 -26 -25 -26 -4 0 -8 -6 -8 -13 0 -24 25 -15 32
11 3 13 8 22 11 19 3 -3 19 9 35 25 21 23 29 27 29 14 0 -9 5 -16 10 -16 6 0
10 5 10 10 0 6 5 10 11 10 5 0 7 -4 4 -10 -3 -5 -2 -10 3 -10 6 0 13 -12 16
-26 5 -17 12 -24 21 -20 9 3 15 0 15 -8 0 -16 42 -46 67 -47 12 0 14 -2 4 -6
-11 -5 -11 -7 0 -14 10 -6 8 -9 -8 -9 -12 0 -25 5 -29 12 -5 7 -3 8 6 3 9 -6
11 -4 5 4 -5 9 -10 10 -18 2 -15 -15 -57 -14 -57 0 0 7 8 18 18 25 15 11 13
13 -18 12 -19 -1 -29 -3 -22 -5 6 -3 12 -20 12 -38 0 -18 5 -35 11 -37 7 -2 5
-9 -5 -17 -14 -12 -16 -9 -16 30 -1 77 -71 132 -87 68 -3 -12 -11 -18 -19 -15
-8 3 -14 0 -14 -7 0 -9 -3 -9 -9 1 -6 10 -13 11 -33 1 -17 -7 -32 -8 -43 -2
-15 9 -14 13 10 39 15 16 21 20 14 9 -13 -19 -13 -19 4 -6 16 13 17 17 5 25
-21 16 13 51 42 43 18 -5 19 -3 9 11 -12 16 -11 16 6 0 17 -16 17 -18 1 -42z"/>
<path d="M1766 2214 c-8 -20 20 -48 39 -40 18 7 19 28 3 44 -17 17 -35 15 -42
-4z"/>
<path d="M1373 2105 c0 -33 2 -45 4 -27 2 18 2 45 0 60 -2 15 -4 0 -4 -33z"/>
<path d="M1010 1893 c0 -6 -3 -19 -7 -28 -6 -16 -4 -16 20 0 23 15 27 15 27 2
0 -16 47 -29 56 -15 3 5 1 15 -5 22 -6 7 -7 17 -3 21 4 5 1 5 -6 0 -10 -5 -11
-10 -3 -18 17 -17 13 -26 -9 -20 -12 3 -20 14 -20 25 0 16 -3 18 -13 9 -10 -8
-17 -7 -25 1 -9 9 -12 9 -12 1z"/>
<path d="M1171 1863 c1 -19 3 -22 6 -10 5 18 6 18 24 1 18 -16 19 -16 18 12 0
24 -2 25 -8 10 -7 -18 -8 -18 -14 -3 -10 27 -27 20 -26 -10z"/>
<path d="M1250 1873 c0 -14 2 -15 9 -5 7 11 9 11 14 -2 4 -9 -1 -16 -11 -18
-9 -2 16 -4 56 -5 65 -1 72 1 72 18 0 27 20 24 21 -3 1 -22 1 -22 9 2 l8 25 2
-25 c2 -21 3 -22 7 -5 3 11 10 23 17 27 6 4 -6 8 -27 8 -31 0 -40 -4 -44 -20
-7 -27 -23 -25 -24 3 l0 22 -11 -22 c-13 -26 -48 -31 -48 -7 0 11 6 15 20 11
11 -3 20 -1 20 4 0 16 -39 9 -49 -8 -10 -17 -10 -17 -11 0 0 9 -7 17 -15 17
-8 0 -15 -8 -15 -17z"/>
<path d="M1547 1883 c-4 -3 -7 -15 -7 -25 0 -24 -17 -23 -23 2 -4 17 -4 17 -3
-2 1 -18 8 -23 31 -25 22 -2 26 0 15 7 -13 9 -13 10 0 10 13 0 13 1 0 10 -13
9 -13 11 0 20 8 5 10 10 4 10 -6 0 -14 -3 -17 -7z"/>
<path d="M1722 1878 c-28 -28 2 -57 39 -38 24 14 24 27 0 40 -24 13 -24 13
-39 -2z m30 -30 c-9 -9 -15 -9 -24 0 -10 10 -10 15 2 22 9 6 19 5 24 0 7 -7 6
-14 -2 -22z"/>
<path d="M1858 1862 l6 -27 7 25 c4 14 7 19 8 13 1 -7 9 -13 19 -13 14 0 14 2
3 9 -11 7 -10 10 5 13 10 3 3 5 -17 5 -34 1 -36 -1 -31 -25z"/>
<path d="M1931 1872 c-13 -24 -15 -43 -2 -24 7 11 12 11 28 1 27 -17 53 -5 52
23 l-2 23 -4 -22 c-5 -27 -20 -30 -26 -5 -4 14 -5 14 -6 -3 -2 -18 -3 -18 -15
4 -13 24 -14 24 -25 3z"/>
<path d="M1801 1864 c-1 -17 4 -22 24 -20 28 1 29 4 15 26 -8 12 -11 13 -19 1
-7 -11 -9 -11 -14 0 -3 9 -6 5 -6 -7z"/>
</g>
</svg>
