<?xml version="1.0" encoding="iso-8859-1"?>
<!-- Uploaded to: SVG Repo, www.svgrepo.com, Generator: SVG Repo Mixer Tools -->
<!DOCTYPE svg PUBLIC "-//W3C//DTD SVG 1.1//EN" "http://www.w3.org/Graphics/SVG/1.1/DTD/svg11.dtd">
<svg fill="#D8B024" version="1.1" id="Capa_1" xmlns="http://www.w3.org/2000/svg" xmlns:xlink="http://www.w3.org/1999/xlink" 
	 width="800px" height="800px" viewBox="0 0 350.877 350.877"
	 xml:space="preserve">
<g>
	<g id="Artwork_11_">
		<g>
			<path d="M213.062,16.749c0,0.046-0.01,0.103-0.01,0.149c0,1.404-0.027,16.738-0.918,34.178h41.067
				c-0.89-17.44-0.917-32.773-0.917-34.178c0-0.047-0.01-0.103-0.01-0.149c1.91-1.714,3.154-4.382,3.154-7.396
				C255.43,4.186,248.99,0,244.514,0h-23.701c-4.475,0-10.916,4.185-10.916,9.353C209.896,12.367,211.143,15.035,213.062,16.749z"/>
			<path d="M262.116,103.199c-3.529-3.595-5.806-15.642-7.246-29.656h-44.399c-1.441,14.014-3.718,26.061-7.246,29.656
				c-20.979,21.316-30.648,41.704-30.648,73.672V309.24c0,43.81,18.124,41.779,60.09,41.562c41.967,0.215,60.09,2.247,60.09-41.562
				V176.871C292.754,144.902,283.084,124.515,262.116,103.199z M278.537,279.836c0,4.188-3.426,7.611-7.611,7.611h-76.519
				c-4.187,0-7.61-3.426-7.61-7.611v-74.9c0-4.187,3.426-7.611,7.61-7.611h76.519c4.186,0,7.611,3.425,7.611,7.611V279.836z"/>
			<path d="M147.209,158.707H72.475c-5.383,0-7.412,0-8.378,3.539c0,0-5.976,24.041-5.976,38.146
				c0,18.739,2.146,32.846,12.142,44.686c10.092,11.951,19.856,12.805,27.8,22.172c10.951,12.915,4.801,66.086,1.56,68.025
				c-2.835,1.695-18.48,3.189-18.48,3.189c-3.946,0-7.145,1.325-7.145,5.27c0,3.947,3.198,7.143,7.145,7.143h28.232h0.468l0,0h0.469
				h28.232c3.946,0,7.144-3.195,7.144-7.143c0-3.944-3.198-5.27-7.144-5.27c0,0-15.646-1.494-18.48-3.189
				c-3.241-1.939-9.393-55.111,1.559-68.025c7.943-9.367,17.708-10.221,27.8-22.172c9.995-11.84,12.142-25.946,12.142-44.686
				c0-14.105-5.976-38.146-5.976-38.146C154.657,158.707,152.591,158.707,147.209,158.707z M140.54,236.244
				c-5.39,6.384-10.025,9.949-15.431,11.871c-7.191,2.562-23.23,2.217-30.534,0c-5.491-1.663-10.042-5.487-15.432-11.871
				c-7.753-9.184-9.418-20.124-9.418-34.66c0-10.941,4.635-20.377,4.635-20.377c1.536-3.059,3.171-2.705,6.498-2.746h28.62h0.363
				l0,0h0.363h28.62c2.852,0,5.05-0.396,6.498,2.746c0,0,4.635,9.438,4.635,20.377C149.958,216.119,148.293,227.061,140.54,236.244z
				"/>
		</g>
	</g>
</g>
</svg>